# Blender v2.82 (sub 7) OBJ File: 'untitled.blend'
# www.blender.org
mtllib cylinder.mtl
o Цилиндр
v -0.000000 -0.102270 -0.742960
v -0.000000 0.102270 -0.742960
v 0.144944 -0.102270 -0.728684
v 0.144944 0.102270 -0.728684
v 0.284318 -0.102270 -0.686405
v 0.284318 0.102270 -0.686405
v 0.412766 -0.102270 -0.617748
v 0.412766 0.102270 -0.617748
v 0.525352 -0.102270 -0.525352
v 0.525352 0.102270 -0.525352
v 0.617748 -0.102270 -0.412766
v 0.617748 0.102270 -0.412766
v 0.686405 -0.102270 -0.284318
v 0.686405 0.102270 -0.284318
v 0.728684 -0.102270 -0.144944
v 0.728684 0.102270 -0.144944
v 0.742960 -0.102270 -0.000000
v 0.742960 0.102270 -0.000000
v 0.728684 -0.102270 0.144944
v 0.728684 0.102270 0.144944
v 0.686405 -0.102270 0.284318
v 0.686405 0.102270 0.284318
v 0.617748 -0.102270 0.412766
v 0.617748 0.102270 0.412766
v 0.525352 -0.102270 0.525352
v 0.525352 0.102270 0.525352
v 0.412766 -0.102270 0.617749
v 0.412766 0.102270 0.617749
v 0.284318 -0.102270 0.686405
v 0.284318 0.102270 0.686405
v 0.144944 -0.102270 0.728684
v 0.144944 0.102270 0.728684
v -0.000000 -0.102270 0.742960
v -0.000000 0.102270 0.742960
v -0.144945 -0.102270 0.728684
v -0.144945 0.102270 0.728684
v -0.284319 -0.102270 0.686405
v -0.284319 0.102270 0.686405
v -0.412767 -0.102270 0.617748
v -0.412767 0.102270 0.617748
v -0.525352 -0.102270 0.525352
v -0.525352 0.102270 0.525352
v -0.617749 -0.102270 0.412766
v -0.617749 0.102270 0.412766
v -0.686406 -0.102270 0.284318
v -0.686406 0.102270 0.284318
v -0.728684 -0.102270 0.144944
v -0.728684 0.102270 0.144944
v -0.742960 -0.102270 -0.000001
v -0.742960 0.102270 -0.000001
v -0.728684 -0.102270 -0.144945
v -0.728684 0.102270 -0.144945
v -0.686405 -0.102270 -0.284319
v -0.686405 0.102270 -0.284319
v -0.617748 -0.102270 -0.412767
v -0.617748 0.102270 -0.412767
v -0.525351 -0.102270 -0.525353
v -0.525351 0.102270 -0.525353
v -0.412766 -0.102270 -0.617749
v -0.412766 0.102270 -0.617749
v -0.284317 -0.102270 -0.686406
v -0.284317 0.102270 -0.686406
v -0.144943 -0.102270 -0.728684
v -0.144943 0.102270 -0.728684
v 0.000000 -0.102270 -1.000000
v 0.195090 -0.102270 -0.980785
v 0.195090 0.102270 -0.980785
v 0.000000 0.102270 -1.000000
v 0.382683 -0.102270 -0.923880
v 0.382683 0.102270 -0.923880
v 0.555570 -0.102270 -0.831470
v 0.555570 0.102270 -0.831470
v 0.707107 -0.102270 -0.707107
v 0.707107 0.102270 -0.707107
v 0.831470 -0.102270 -0.555570
v 0.831470 0.102270 -0.555570
v 0.923880 -0.102270 -0.382683
v 0.923880 0.102270 -0.382683
v 0.980785 -0.102270 -0.195090
v 0.980785 0.102270 -0.195090
v 1.000000 -0.102270 -0.000000
v 1.000000 0.102270 -0.000000
v 0.980785 -0.102270 0.195090
v 0.980785 0.102270 0.195090
v 0.923880 -0.102270 0.382683
v 0.923880 0.102270 0.382683
v 0.831470 -0.102270 0.555570
v 0.831470 0.102270 0.555570
v 0.707107 -0.102270 0.707107
v 0.707107 0.102270 0.707107
v 0.555570 -0.102270 0.831470
v 0.555570 0.102270 0.831470
v 0.382683 -0.102270 0.923880
v 0.382683 0.102270 0.923880
v 0.195090 -0.102270 0.980785
v 0.195090 0.102270 0.980785
v -0.000000 -0.102270 1.000000
v -0.000000 0.102270 1.000000
v -0.195091 -0.102270 0.980785
v -0.195091 0.102270 0.980785
v -0.382684 -0.102270 0.923879
v -0.382684 0.102270 0.923879
v -0.555571 -0.102270 0.831469
v -0.555571 0.102270 0.831469
v -0.707107 -0.102270 0.707106
v -0.707107 0.102270 0.707106
v -0.831470 -0.102270 0.555570
v -0.831470 0.102270 0.555570
v -0.923880 -0.102270 0.382683
v -0.923880 0.102270 0.382683
v -0.980785 -0.102270 0.195089
v -0.980785 0.102270 0.195089
v -1.000000 -0.102270 -0.000001
v -1.000000 0.102270 -0.000001
v -0.980785 -0.102270 -0.195091
v -0.980785 0.102270 -0.195091
v -0.923879 -0.102270 -0.382684
v -0.923879 0.102270 -0.382684
v -0.831469 -0.102270 -0.555571
v -0.831469 0.102270 -0.555571
v -0.707106 -0.102270 -0.707108
v -0.707106 0.102270 -0.707108
v -0.555569 -0.102270 -0.831470
v -0.555569 0.102270 -0.831470
v -0.382682 -0.102270 -0.923880
v -0.382682 0.102270 -0.923880
v -0.195089 -0.102270 -0.980786
v -0.195089 0.102270 -0.980786
v -0.000000 -0.102270 -0.742960
v 0.144944 -0.102270 -0.728684
v 0.144944 0.102270 -0.728684
v -0.000000 0.102270 -0.742960
v 0.284318 -0.102270 -0.686405
v 0.284318 0.102270 -0.686405
v 0.412766 -0.102270 -0.617748
v 0.412766 0.102270 -0.617748
v 0.525352 -0.102270 -0.525352
v 0.525352 0.102270 -0.525352
v 0.617748 -0.102270 -0.412766
v 0.617748 0.102270 -0.412766
v 0.686405 -0.102270 -0.284318
v 0.686405 0.102270 -0.284318
v 0.728684 -0.102270 -0.144944
v 0.728684 0.102270 -0.144944
v 0.742960 -0.102270 -0.000000
v 0.742960 0.102270 -0.000000
v 0.728684 -0.102270 0.144944
v 0.728684 0.102270 0.144944
v 0.686405 -0.102270 0.284318
v 0.686405 0.102270 0.284318
v 0.617748 -0.102270 0.412766
v 0.617748 0.102270 0.412766
v 0.525352 -0.102270 0.525352
v 0.525352 0.102270 0.525352
v 0.412766 -0.102270 0.617749
v 0.412766 0.102270 0.617749
v 0.284318 -0.102270 0.686405
v 0.284318 0.102270 0.686405
v 0.144944 -0.102270 0.728684
v 0.144944 0.102270 0.728684
v -0.000000 -0.102270 0.742960
v -0.000000 0.102270 0.742960
v -0.144945 -0.102270 0.728684
v -0.144945 0.102270 0.728684
v -0.284319 -0.102270 0.686405
v -0.284319 0.102270 0.686405
v -0.412767 -0.102270 0.617748
v -0.412767 0.102270 0.617748
v -0.525352 -0.102270 0.525352
v -0.525352 0.102270 0.525352
v -0.617749 -0.102270 0.412766
v -0.617749 0.102270 0.412766
v -0.686406 -0.102270 0.284318
v -0.686406 0.102270 0.284318
v -0.728684 -0.102270 0.144944
v -0.728684 0.102270 0.144944
v -0.742960 -0.102270 -0.000001
v -0.742960 0.102270 -0.000001
v -0.728684 -0.102270 -0.144945
v -0.728684 0.102270 -0.144945
v -0.686405 -0.102270 -0.284319
v -0.686405 0.102270 -0.284319
v -0.617748 -0.102270 -0.412767
v -0.617748 0.102270 -0.412767
v -0.525351 -0.102270 -0.525353
v -0.525351 0.102270 -0.525353
v -0.412766 -0.102270 -0.617749
v -0.412766 0.102270 -0.617749
v -0.284317 -0.102270 -0.686406
v -0.284317 0.102270 -0.686406
v -0.144943 -0.102270 -0.728684
v -0.144943 0.102270 -0.728684
v 0.144945 -0.102832 -0.728684
v 0.000000 -0.102832 -0.742960
v 0.284319 -0.102832 -0.686405
v 0.412767 -0.102832 -0.617748
v 0.525352 -0.102832 -0.525352
v 0.617749 -0.102832 -0.412766
v 0.686406 -0.102832 -0.284318
v 0.728684 -0.102832 -0.144944
v 0.742960 -0.102832 -0.000000
v 0.728684 -0.102832 0.144944
v 0.686406 -0.102832 0.284318
v 0.617749 -0.102832 0.412766
v 0.525352 -0.102832 0.525352
v 0.412767 -0.102832 0.617749
v 0.284319 -0.102832 0.686405
v 0.144944 -0.102832 0.728684
v 0.000000 -0.102832 0.742960
v -0.144944 -0.102832 0.728684
v -0.284318 -0.102832 0.686405
v -0.412766 -0.102832 0.617748
v -0.525352 -0.102832 0.525352
v -0.617748 -0.102832 0.412766
v -0.686405 -0.102832 0.284318
v -0.728684 -0.102832 0.144944
v -0.742959 -0.102832 -0.000001
v -0.728683 -0.102832 -0.144945
v -0.686405 -0.102832 -0.284319
v -0.617748 -0.102832 -0.412767
v -0.525351 -0.102832 -0.525353
v -0.412765 -0.102832 -0.617749
v -0.284317 -0.102832 -0.686406
v -0.144943 -0.102832 -0.728684
vt 1.000000 0.500000
vt 1.000000 1.000000
vt 0.968750 1.000000
vt 0.968750 0.500000
vt 0.937500 1.000000
vt 0.937500 0.500000
vt 0.906250 1.000000
vt 0.906250 0.500000
vt 0.875000 1.000000
vt 0.875000 0.500000
vt 0.843750 1.000000
vt 0.843750 0.500000
vt 0.812500 1.000000
vt 0.812500 0.500000
vt 0.781250 1.000000
vt 0.781250 0.500000
vt 0.750000 1.000000
vt 0.750000 0.500000
vt 0.718750 1.000000
vt 0.718750 0.500000
vt 0.687500 1.000000
vt 0.687500 0.500000
vt 0.656250 1.000000
vt 0.656250 0.500000
vt 0.625000 1.000000
vt 0.625000 0.500000
vt 0.593750 1.000000
vt 0.593750 0.500000
vt 0.562500 1.000000
vt 0.562500 0.500000
vt 0.531250 1.000000
vt 0.531250 0.500000
vt 0.500000 1.000000
vt 0.500000 0.500000
vt 0.468750 1.000000
vt 0.468750 0.500000
vt 0.437500 1.000000
vt 0.437500 0.500000
vt 0.406250 1.000000
vt 0.406250 0.500000
vt 0.375000 1.000000
vt 0.375000 0.500000
vt 0.343750 1.000000
vt 0.343750 0.500000
vt 0.312500 1.000000
vt 0.312500 0.500000
vt 0.281250 1.000000
vt 0.281250 0.500000
vt 0.250000 1.000000
vt 0.250000 0.500000
vt 0.218750 1.000000
vt 0.218750 0.500000
vt 0.187500 1.000000
vt 0.187500 0.500000
vt 0.156250 1.000000
vt 0.156250 0.500000
vt 0.125000 1.000000
vt 0.125000 0.500000
vt 0.093750 1.000000
vt 0.093750 0.500000
vt 0.062500 1.000000
vt 0.062500 0.500000
vt 0.898260 0.150936
vt 0.876084 0.123916
vt 0.876084 0.123916
vt 0.898260 0.150936
vt 0.031250 1.000000
vt 0.031250 0.500000
vt 0.000000 1.000000
vt 0.000000 0.500000
vt 0.571690 0.250000
vt 0.575116 0.284787
vt 0.575116 0.284787
vt 0.571690 0.250000
vt 0.784786 0.424884
vt 0.750000 0.428310
vt 0.750000 0.490000
vt 0.796822 0.485388
vt 0.250000 0.428310
vt 0.284787 0.424884
vt 0.296822 0.485388
vt 0.250000 0.490000
vt 0.818236 0.414737
vt 0.841844 0.471731
vt 0.318236 0.414737
vt 0.341844 0.471731
vt 0.849064 0.398260
vt 0.883337 0.449553
vt 0.349064 0.398260
vt 0.383337 0.449553
vt 0.876084 0.376085
vt 0.919706 0.419706
vt 0.376085 0.376085
vt 0.419706 0.419706
vt 0.898260 0.349064
vt 0.949553 0.383337
vt 0.398260 0.349064
vt 0.449553 0.383337
vt 0.914737 0.318236
vt 0.971731 0.341844
vt 0.414737 0.318236
vt 0.471731 0.341844
vt 0.924884 0.284787
vt 0.985388 0.296822
vt 0.424884 0.284787
vt 0.485388 0.296822
vt 0.928310 0.250000
vt 0.990000 0.250000
vt 0.428310 0.250000
vt 0.490000 0.250000
vt 0.924884 0.215213
vt 0.985388 0.203178
vt 0.424884 0.215213
vt 0.485388 0.203178
vt 0.914737 0.181764
vt 0.971731 0.158156
vt 0.414737 0.181764
vt 0.471731 0.158156
vt 0.949553 0.116663
vt 0.398260 0.150936
vt 0.449553 0.116663
vt 0.919706 0.080294
vt 0.376084 0.123916
vt 0.419706 0.080294
vt 0.849064 0.101740
vt 0.883337 0.050447
vt 0.349064 0.101740
vt 0.383337 0.050447
vt 0.818236 0.085263
vt 0.841844 0.028269
vt 0.318236 0.085263
vt 0.341844 0.028269
vt 0.784786 0.075116
vt 0.796822 0.014612
vt 0.284786 0.075116
vt 0.296822 0.014612
vt 0.750000 0.071690
vt 0.750000 0.010000
vt 0.250000 0.071690
vt 0.250000 0.010000
vt 0.715213 0.075116
vt 0.703178 0.014612
vt 0.215213 0.075116
vt 0.203178 0.014612
vt 0.681763 0.085263
vt 0.658156 0.028269
vt 0.181763 0.085263
vt 0.158156 0.028269
vt 0.650936 0.101740
vt 0.616663 0.050447
vt 0.150936 0.101740
vt 0.116663 0.050447
vt 0.623915 0.123916
vt 0.580294 0.080294
vt 0.123915 0.123916
vt 0.080294 0.080294
vt 0.601740 0.150936
vt 0.550447 0.116663
vt 0.101740 0.150936
vt 0.050447 0.116663
vt 0.585263 0.181764
vt 0.528269 0.158156
vt 0.085263 0.181764
vt 0.028269 0.158156
vt 0.575116 0.215214
vt 0.514611 0.203179
vt 0.075116 0.215214
vt 0.014611 0.203179
vt 0.510000 0.250000
vt 0.071690 0.250000
vt 0.010000 0.250000
vt 0.514612 0.296822
vt 0.075116 0.284787
vt 0.014612 0.296822
vt 0.585263 0.318237
vt 0.528269 0.341844
vt 0.085263 0.318237
vt 0.028269 0.341844
vt 0.601740 0.349064
vt 0.550447 0.383337
vt 0.101740 0.349064
vt 0.050447 0.383337
vt 0.623916 0.376085
vt 0.580295 0.419706
vt 0.123916 0.376085
vt 0.080295 0.419706
vt 0.650936 0.398260
vt 0.616663 0.449553
vt 0.150936 0.398260
vt 0.116663 0.449553
vt 0.681764 0.414737
vt 0.658156 0.471731
vt 0.181764 0.414737
vt 0.158156 0.471731
vt 0.715214 0.424884
vt 0.703179 0.485389
vt 0.215214 0.424884
vt 0.203179 0.485389
vt 0.071690 0.250000
vt 0.075116 0.215214
vt 0.075116 0.215214
vt 0.071690 0.250000
vt 0.075116 0.284787
vt 0.398260 0.150936
vt 0.376084 0.123916
vt 0.585263 0.318237
vt 0.849064 0.101740
vt 0.085263 0.318237
vt 0.349064 0.101740
vt 0.601740 0.349064
vt 0.818236 0.085263
vt 0.784786 0.424884
vt 0.750000 0.428310
vt 0.101740 0.349064
vt 0.318236 0.085263
vt 0.250000 0.428310
vt 0.284787 0.424884
vt 0.623916 0.376085
vt 0.784786 0.075116
vt 0.818236 0.414737
vt 0.123916 0.376085
vt 0.284786 0.075116
vt 0.318236 0.414737
vt 0.650936 0.398260
vt 0.750000 0.071690
vt 0.849064 0.398260
vt 0.150936 0.398260
vt 0.250000 0.071690
vt 0.349064 0.398260
vt 0.681764 0.414737
vt 0.715213 0.075116
vt 0.876084 0.376085
vt 0.181764 0.414737
vt 0.215213 0.075116
vt 0.376085 0.376085
vt 0.715214 0.424884
vt 0.681763 0.085263
vt 0.898260 0.349064
vt 0.215214 0.424884
vt 0.181763 0.085263
vt 0.398260 0.349064
vt 0.650936 0.101740
vt 0.914737 0.318236
vt 0.150936 0.101740
vt 0.414737 0.318236
vt 0.623915 0.123916
vt 0.924884 0.284787
vt 0.123915 0.123916
vt 0.424884 0.284787
vt 0.601740 0.150936
vt 0.928310 0.250000
vt 0.101740 0.150936
vt 0.428310 0.250000
vt 0.585263 0.181764
vt 0.924884 0.215213
vt 0.085263 0.181764
vt 0.424884 0.215213
vt 0.575116 0.215214
vt 0.914737 0.181764
vt 0.414737 0.181764
vt 0.349064 0.398260
vt 0.376085 0.376085
vt 0.181764 0.414737
vt 0.215214 0.424884
vt 0.414737 0.181764
vt 0.398260 0.150936
vt 0.215213 0.075116
vt 0.181763 0.085263
vt 0.075116 0.284787
vt 0.398260 0.349064
vt 0.250000 0.428310
vt 0.376084 0.123916
vt 0.150936 0.101740
vt 0.085263 0.318237
vt 0.414737 0.318236
vt 0.349064 0.101740
vt 0.123915 0.123916
vt 0.101740 0.349064
vt 0.424884 0.284787
vt 0.318236 0.085263
vt 0.101740 0.150936
vt 0.284787 0.424884
vt 0.123916 0.376085
vt 0.428310 0.250000
vt 0.284786 0.075116
vt 0.085263 0.181764
vt 0.318236 0.414737
vt 0.150936 0.398260
vt 0.424884 0.215213
vt 0.250000 0.071690
vn 0.0980 0.0000 -0.9952
vn 0.2903 0.0000 -0.9569
vn 0.4714 0.0000 -0.8819
vn 0.6344 0.0000 -0.7730
vn 0.7730 0.0000 -0.6344
vn 0.8819 0.0000 -0.4714
vn 0.9569 0.0000 -0.2903
vn 0.9952 0.0000 -0.0980
vn 0.9952 0.0000 0.0980
vn 0.9569 0.0000 0.2903
vn 0.8819 0.0000 0.4714
vn 0.7730 0.0000 0.6344
vn 0.6344 0.0000 0.7730
vn 0.4714 0.0000 0.8819
vn 0.2903 0.0000 0.9569
vn 0.0980 0.0000 0.9952
vn -0.0980 0.0000 0.9952
vn -0.2903 0.0000 0.9569
vn -0.4714 0.0000 0.8819
vn -0.6344 0.0000 0.7730
vn -0.7730 0.0000 0.6344
vn -0.8819 0.0000 0.4714
vn -0.9569 0.0000 0.2903
vn -0.9952 0.0000 0.0980
vn -0.9952 0.0000 -0.0980
vn -0.9569 0.0000 -0.2903
vn -0.8819 0.0000 -0.4714
vn -0.7730 0.0000 -0.6344
vn -0.6344 0.0000 -0.7730
vn -0.4714 0.0000 -0.8819
vn 0.0000 0.0000 1.0000
vn -0.2903 0.0000 -0.9569
vn -0.0980 0.0000 -0.9952
vn 0.0000 -1.0000 -0.0000
vn 0.0000 1.0000 0.0000
usemtl None
s off
f 65/1/1 68/2/1 67/3/1 66/4/1
f 66/4/2 67/3/2 70/5/2 69/6/2
f 69/6/3 70/5/3 72/7/3 71/8/3
f 71/8/4 72/7/4 74/9/4 73/10/4
f 73/10/5 74/9/5 76/11/5 75/12/5
f 75/12/6 76/11/6 78/13/6 77/14/6
f 77/14/7 78/13/7 80/15/7 79/16/7
f 79/16/8 80/15/8 82/17/8 81/18/8
f 81/18/9 82/17/9 84/19/9 83/20/9
f 83/20/10 84/19/10 86/21/10 85/22/10
f 85/22/11 86/21/11 88/23/11 87/24/11
f 87/24/12 88/23/12 90/25/12 89/26/12
f 89/26/13 90/25/13 92/27/13 91/28/13
f 91/28/14 92/27/14 94/29/14 93/30/14
f 93/30/15 94/29/15 96/31/15 95/32/15
f 95/32/16 96/31/16 98/33/16 97/34/16
f 97/34/17 98/33/17 100/35/17 99/36/17
f 99/36/18 100/35/18 102/37/18 101/38/18
f 101/38/19 102/37/19 104/39/19 103/40/19
f 103/40/20 104/39/20 106/41/20 105/42/20
f 105/42/21 106/41/21 108/43/21 107/44/21
f 107/44/22 108/43/22 110/45/22 109/46/22
f 109/46/23 110/45/23 112/47/23 111/48/23
f 111/48/24 112/47/24 114/49/24 113/50/24
f 113/50/25 114/49/25 116/51/25 115/52/25
f 115/52/26 116/51/26 118/53/26 117/54/26
f 117/54/27 118/53/27 120/55/27 119/56/27
f 119/56/28 120/55/28 122/57/28 121/58/28
f 121/58/29 122/57/29 124/59/29 123/60/29
f 123/60/30 124/59/30 126/61/30 125/62/30
f 23/63/31 25/64/31 153/65/31 151/66/31
f 125/62/32 126/61/32 128/67/32 127/68/32
f 127/68/33 128/67/33 68/69/33 65/70/33
f 49/71/31 51/72/31 179/73/31 177/74/31
f 3/75/34 1/76/34 65/77/34 66/78/34
f 2/79/35 4/80/35 67/81/35 68/82/35
f 5/83/34 3/75/34 66/78/34 69/84/34
f 4/80/35 6/85/35 70/86/35 67/81/35
f 7/87/34 5/83/34 69/84/34 71/88/34
f 6/85/35 8/89/35 72/90/35 70/86/35
f 9/91/34 7/87/34 71/88/34 73/92/34
f 8/89/35 10/93/35 74/94/35 72/90/35
f 11/95/34 9/91/34 73/92/34 75/96/34
f 10/93/35 12/97/35 76/98/35 74/94/35
f 13/99/34 11/95/34 75/96/34 77/100/34
f 12/97/35 14/101/35 78/102/35 76/98/35
f 15/103/34 13/99/34 77/100/34 79/104/34
f 14/101/35 16/105/35 80/106/35 78/102/35
f 17/107/34 15/103/34 79/104/34 81/108/34
f 16/105/35 18/109/35 82/110/35 80/106/35
f 19/111/34 17/107/34 81/108/34 83/112/34
f 18/109/35 20/113/35 84/114/35 82/110/35
f 21/115/34 19/111/34 83/112/34 85/116/34
f 20/113/35 22/117/35 86/118/35 84/114/35
f 23/63/34 21/115/34 85/116/34 87/119/34
f 22/117/35 24/120/35 88/121/35 86/118/35
f 25/64/34 23/63/34 87/119/34 89/122/34
f 24/120/35 26/123/35 90/124/35 88/121/35
f 27/125/34 25/64/34 89/122/34 91/126/34
f 26/123/35 28/127/35 92/128/35 90/124/35
f 29/129/34 27/125/34 91/126/34 93/130/34
f 28/127/35 30/131/35 94/132/35 92/128/35
f 31/133/34 29/129/34 93/130/34 95/134/34
f 30/131/35 32/135/35 96/136/35 94/132/35
f 33/137/34 31/133/34 95/134/34 97/138/34
f 32/135/35 34/139/35 98/140/35 96/136/35
f 35/141/34 33/137/34 97/138/34 99/142/34
f 34/139/35 36/143/35 100/144/35 98/140/35
f 37/145/34 35/141/34 99/142/34 101/146/34
f 36/143/35 38/147/35 102/148/35 100/144/35
f 39/149/34 37/145/34 101/146/34 103/150/34
f 38/147/35 40/151/35 104/152/35 102/148/35
f 41/153/34 39/149/34 103/150/34 105/154/34
f 40/151/35 42/155/35 106/156/35 104/152/35
f 43/157/34 41/153/34 105/154/34 107/158/34
f 42/155/35 44/159/35 108/160/35 106/156/35
f 45/161/34 43/157/34 107/158/34 109/162/34
f 44/159/35 46/163/35 110/164/35 108/160/35
f 47/165/34 45/161/34 109/162/34 111/166/34
f 46/163/35 48/167/35 112/168/35 110/164/35
f 49/71/34 47/165/34 111/166/34 113/169/34
f 48/167/35 50/170/35 114/171/35 112/168/35
f 51/72/34 49/71/34 113/169/34 115/172/34
f 50/170/35 52/173/35 116/174/35 114/171/35
f 53/175/34 51/72/34 115/172/34 117/176/34
f 52/173/35 54/177/35 118/178/35 116/174/35
f 55/179/34 53/175/34 117/176/34 119/180/34
f 54/177/35 56/181/35 120/182/35 118/178/35
f 57/183/34 55/179/34 119/180/34 121/184/34
f 56/181/35 58/185/35 122/186/35 120/182/35
f 59/187/34 57/183/34 121/184/34 123/188/34
f 58/185/35 60/189/35 124/190/35 122/186/35
f 61/191/34 59/187/34 123/188/34 125/192/34
f 60/189/35 62/193/35 126/194/35 124/190/35
f 63/195/34 61/191/34 125/192/34 127/196/34
f 62/193/35 64/197/35 128/198/35 126/194/35
f 1/76/34 63/195/34 127/196/34 65/77/34
f 64/197/35 2/79/35 68/82/35 128/198/35
f 178/199/8 176/200/8 216/201/8 217/202/8
f 52/173/31 50/170/31 178/199/31 180/203/31
f 26/123/31 24/120/31 152/204/31 154/205/31
f 51/72/31 53/175/31 181/206/31 179/73/31
f 25/64/31 27/125/31 155/207/31 153/65/31
f 54/177/31 52/173/31 180/203/31 182/208/31
f 28/127/31 26/123/31 154/205/31 156/209/31
f 53/175/31 55/179/31 183/210/31 181/206/31
f 27/125/31 29/129/31 157/211/31 155/207/31
f 1/76/31 3/75/31 130/212/31 129/213/31
f 56/181/31 54/177/31 182/208/31 184/214/31
f 30/131/31 28/127/31 156/209/31 158/215/31
f 4/80/31 2/79/31 132/216/31 131/217/31
f 55/179/31 57/183/31 185/218/31 183/210/31
f 29/129/31 31/133/31 159/219/31 157/211/31
f 3/75/31 5/83/31 133/220/31 130/212/31
f 58/185/31 56/181/31 184/214/31 186/221/31
f 32/135/31 30/131/31 158/215/31 160/222/31
f 6/85/31 4/80/31 131/217/31 134/223/31
f 57/183/31 59/187/31 187/224/31 185/218/31
f 31/133/31 33/137/31 161/225/31 159/219/31
f 5/83/31 7/87/31 135/226/31 133/220/31
f 60/189/31 58/185/31 186/221/31 188/227/31
f 34/139/31 32/135/31 160/222/31 162/228/31
f 8/89/31 6/85/31 134/223/31 136/229/31
f 59/187/31 61/191/31 189/230/31 187/224/31
f 33/137/31 35/141/31 163/231/31 161/225/31
f 7/87/31 9/91/31 137/232/31 135/226/31
f 62/193/31 60/189/31 188/227/31 190/233/31
f 36/143/31 34/139/31 162/228/31 164/234/31
f 10/93/31 8/89/31 136/229/31 138/235/31
f 61/191/31 63/195/31 191/236/31 189/230/31
f 35/141/31 37/145/31 165/237/31 163/231/31
f 9/91/31 11/95/31 139/238/31 137/232/31
f 64/197/31 62/193/31 190/233/31 192/239/31
f 38/147/31 36/143/31 164/234/31 166/240/31
f 12/97/31 10/93/31 138/235/31 140/241/31
f 63/195/31 1/76/31 129/213/31 191/236/31
f 37/145/31 39/149/31 167/242/31 165/237/31
f 11/95/31 13/99/31 141/243/31 139/238/31
f 2/79/31 64/197/31 192/239/31 132/216/31
f 40/151/31 38/147/31 166/240/31 168/244/31
f 14/101/31 12/97/31 140/241/31 142/245/31
f 39/149/31 41/153/31 169/246/31 167/242/31
f 13/99/31 15/103/31 143/247/31 141/243/31
f 42/155/31 40/151/31 168/244/31 170/248/31
f 16/105/31 14/101/31 142/245/31 144/249/31
f 41/153/31 43/157/31 171/250/31 169/246/31
f 15/103/31 17/107/31 145/251/31 143/247/31
f 44/159/31 42/155/31 170/248/31 172/252/31
f 18/109/31 16/105/31 144/249/31 146/253/31
f 43/157/31 45/161/31 173/254/31 171/250/31
f 17/107/31 19/111/31 147/255/31 145/251/31
f 46/163/31 44/159/31 172/252/31 174/256/31
f 20/113/31 18/109/31 146/253/31 148/257/31
f 45/161/31 47/165/31 175/258/31 173/254/31
f 19/111/31 21/115/31 149/259/31 147/255/31
f 48/167/31 46/163/31 174/256/31 176/200/31
f 22/117/31 20/113/31 148/257/31 150/260/31
f 47/165/31 49/71/31 177/74/31 175/258/31
f 21/115/31 23/63/31 151/66/31 149/259/31
f 50/170/31 48/167/31 176/200/31 178/199/31
f 24/120/31 22/117/31 150/260/31 152/204/31
f 138/235/20 136/229/20 196/261/20 197/262/20
f 192/239/15 190/233/15 223/263/15 224/264/15
f 152/204/27 150/260/27 203/265/27 204/266/27
f 166/240/2 164/234/2 210/267/2 211/268/2
f 180/203/9 178/199/9 217/202/9 218/269/9
f 140/241/21 138/235/21 197/262/21 198/270/21
f 132/216/16 192/239/16 224/264/16 194/271/16
f 154/205/28 152/204/28 204/266/28 205/272/28
f 168/244/3 166/240/3 211/268/3 212/273/3
f 182/208/10 180/203/10 218/269/10 219/274/10
f 142/245/22 140/241/22 198/270/22 199/275/22
f 156/209/29 154/205/29 205/272/29 206/276/29
f 170/248/4 168/244/4 212/273/4 213/277/4
f 184/214/11 182/208/11 219/274/11 220/278/11
f 144/249/23 142/245/23 199/275/23 200/279/23
f 158/215/30 156/209/30 206/276/30 207/280/30
f 172/252/5 170/248/5 213/277/5 214/281/5
f 131/217/17 132/216/17 194/271/17 193/282/17
f 186/221/12 184/214/12 220/278/12 221/283/12
f 146/253/24 144/249/24 200/279/24 201/284/24
f 160/222/32 158/215/32 207/280/32 208/285/32
f 174/256/6 172/252/6 214/281/6 215/286/6
f 134/223/18 131/217/18 193/282/18 195/287/18
f 188/227/13 186/221/13 221/283/13 222/288/13
f 148/257/25 146/253/25 201/284/25 202/289/25
f 162/228/33 160/222/33 208/285/33 209/290/33
f 176/200/7 174/256/7 215/286/7 216/201/7
f 136/229/19 134/223/19 195/287/19 196/261/19
f 190/233/14 188/227/14 222/288/14 223/263/14
f 150/260/26 148/257/26 202/289/26 203/265/26
f 164/234/1 162/228/1 209/290/1 210/267/1
